<svg width="1440" height="27" fill="none" xmlns="http://www.w3.org/2000/svg"><g opacity=".25"><path d="M0 6.929c34.286 0 34.286 12.641 68.573 12.641 34.286 0 34.286-12.641 68.559-12.641 34.273 0 34.286 12.641 68.573 12.641 34.286 0 34.286-12.641 68.572-12.641 34.287 0 34.287 12.641 68.56 12.641s34.286-12.64 68.572-12.64c34.287 0 34.287 12.641 68.573 12.641 34.286 0 34.286-12.641 68.573-12.641 34.286 0 34.273 12.641 68.559 12.641C651.4 19.57 651.4 6.93 685.687 6.93c34.286 0 34.286 12.641 68.559 12.641 34.273 0 34.286-12.641 68.573-12.641 34.286 0 34.286 12.641 68.586 12.641S925.678 6.93 959.964 6.93c34.287 0 34.3 12.641 68.586 12.641 34.29 0 34.29-12.641 68.56-12.641s34.29 12.641 68.57 12.641c34.29 0 34.29-12.641 68.59-12.641 34.3 0 34.28 12.641 68.57 12.641 34.29 0 34.29-12.641 68.57-12.641 34.29 0 34.3 12.641 68.59 12.641" fill="#000"/><path d="M0 6.929c34.286 0 34.286 12.641 68.573 12.641 34.286 0 34.286-12.641 68.559-12.641 34.273 0 34.286 12.641 68.573 12.641 34.286 0 34.286-12.641 68.572-12.641 34.287 0 34.287 12.641 68.56 12.641s34.286-12.64 68.572-12.64c34.287 0 34.287 12.641 68.573 12.641 34.286 0 34.286-12.641 68.573-12.641 34.286 0 34.273 12.641 68.559 12.641C651.4 19.57 651.4 6.93 685.687 6.93c34.286 0 34.286 12.641 68.559 12.641 34.273 0 34.286-12.641 68.573-12.641 34.286 0 34.286 12.641 68.586 12.641S925.678 6.93 959.964 6.93c34.287 0 34.3 12.641 68.586 12.641 34.29 0 34.29-12.641 68.56-12.641s34.29 12.641 68.57 12.641c34.29 0 34.29-12.641 68.59-12.641 34.3 0 34.28 12.641 68.57 12.641 34.29 0 34.29-12.641 68.57-12.641 34.29 0 34.3 12.641 68.59 12.641" stroke="#000" stroke-width="13" stroke-miterlimit="10"/></g></svg>