<svg width="1440" height="27" viewBox="0 0 1440 27" fill="none" xmlns="http://www.w3.org/2000/svg">
<g opacity="0.25">
<path d="M0 6.92871C34.2864 6.92871 34.2863 19.5701 68.5727 19.5701C102.859 19.5701 102.859 6.92871 137.132 6.92871C171.405 6.92871 171.418 19.5701 205.705 19.5701C239.991 19.5701 239.991 6.92871 274.277 6.92871C308.564 6.92871 308.564 19.5701 342.837 19.5701C377.11 19.5701 377.123 6.92871 411.409 6.92871C445.696 6.92871 445.696 19.5701 479.982 19.5701C514.268 19.5701 514.268 6.92871 548.555 6.92871C582.841 6.92871 582.828 19.5701 617.114 19.5701C651.4 19.5701 651.4 6.92871 685.687 6.92871C719.973 6.92871 719.973 19.5701 754.246 19.5701C788.519 19.5701 788.532 6.92871 822.819 6.92871C857.105 6.92871 857.105 19.5701 891.405 19.5701C925.705 19.5701 925.678 6.92871 959.964 6.92871C994.251 6.92871 994.264 19.5701 1028.55 19.5701C1062.84 19.5701 1062.84 6.92871 1097.11 6.92871C1131.38 6.92871 1131.4 19.5701 1165.68 19.5701C1199.97 19.5701 1199.97 6.92871 1234.27 6.92871C1268.57 6.92871 1268.55 19.5701 1302.84 19.5701C1337.13 19.5701 1337.13 6.92871 1371.41 6.92871C1405.7 6.92871 1405.71 19.5701 1440 19.5701" fill="black"/>
<path d="M0 6.92871C34.2864 6.92871 34.2863 19.5701 68.5727 19.5701C102.859 19.5701 102.859 6.92871 137.132 6.92871C171.405 6.92871 171.418 19.5701 205.705 19.5701C239.991 19.5701 239.991 6.92871 274.277 6.92871C308.564 6.92871 308.564 19.5701 342.837 19.5701C377.11 19.5701 377.123 6.92871 411.409 6.92871C445.696 6.92871 445.696 19.5701 479.982 19.5701C514.268 19.5701 514.268 6.92871 548.555 6.92871C582.841 6.92871 582.828 19.5701 617.114 19.5701C651.4 19.5701 651.4 6.92871 685.687 6.92871C719.973 6.92871 719.973 19.5701 754.246 19.5701C788.519 19.5701 788.532 6.92871 822.819 6.92871C857.105 6.92871 857.105 19.5701 891.405 19.5701C925.705 19.5701 925.678 6.92871 959.964 6.92871C994.251 6.92871 994.264 19.5701 1028.55 19.5701C1062.84 19.5701 1062.84 6.92871 1097.11 6.92871C1131.38 6.92871 1131.4 19.5701 1165.68 19.5701C1199.97 19.5701 1199.97 6.92871 1234.27 6.92871C1268.57 6.92871 1268.55 19.5701 1302.84 19.5701C1337.13 19.5701 1337.13 6.92871 1371.41 6.92871C1405.7 6.92871 1405.71 19.5701 1440 19.5701" stroke="black" stroke-width="13" stroke-miterlimit="10"/>
</g>
</svg>
